# xmcd CD database file
#
# Track frame offsets:
#	150
#	14372
#	25985
#	34177
#	44945
#	59877
#	71482
#	81230
#	90705
#	103242
#	116147
#	131590
#	142615
#	153150
#
# Disc length: 2237 seconds
#
# Revision: 4
# Processed by: cddbd v1.5.1PL2 Copyright (c) Steve Scherf et al.
# Submitted via: CDex 1.51
#
DISCID=c708bb0e
DTITLE=R.L. Burnside - First Recordings
DYEAR=2003
DGENRE=Blues
TTITLE0=Just Like A Bird Without A Feather
TTITLE1=Goin' Down South
TTITLE2=Come On In
TTITLE3=Little Babe
TTITLE4=Rollin' And Tumblin'
TTITLE5=Jumper On The Line
TTITLE6=Skinny Woman
TTITLE7=Poor Black Mattie
TTITLE8=Long Haired Doney
TTITLE9=Peaches
TTITLE10=Walkin' Blues
TTITLE11=Hobo Blues
TTITLE12=My Time Ain't Long
TTITLE13=Sat Down On My Bed And Cried
EXTD=YEAR: 2003
EXTT0=(Traditional)
EXTT1=(Traditional)
EXTT2=(Traditional)
EXTT3=(Traditional)
EXTT4=(Traditional)
EXTT5=(Traditional)
EXTT6=(Traditional)
EXTT7=(Traditional)
EXTT8=(Traditional)
EXTT9=(Traditional)
EXTT10=(Traditional)
EXTT11=(Traditional)
EXTT12=(Traditional)
EXTT13=(Traditional)
PLAYORDER=
